<?xml version="1.0" encoding="UTF-8"?>
<svg id="_10" data-name="10" xmlns="http://www.w3.org/2000/svg" version="1.1" viewBox="0 0 512 512">
  <defs>
    <style>
      .cls-1 {
        fill: #fff;
        stroke-width: 0px;
      }
    </style>
  </defs>
  <path class="cls-1" d="M82.9,255.2c0-37.3,11.9-71.9,32.1-100.2l-52.9-52.9-6.1-6.2s0,0,0,0h-.1C20.9,139.6,0,195,0,255.2s20.9,115.6,55.9,159.4l59.1-59.1c-20.2-28.3-32.1-62.9-32.1-100.2Z"/>
  <path class="cls-1" d="M356.2,396.2c-20.9,14.9-45.1,25.2-71.4,29.6-9.4,1.6-19,2.4-28.8,2.4s-19.5-.8-28.8-2.4c-26.2-4.4-50.5-14.8-71.4-29.6l-53,53-6.1,6.1h0s-.1.1-.1.1c36.7,29.3,81.5,48.7,130.5,54.2,9.5,1.1,19.1,1.6,28.8,1.6s19.4-.5,28.8-1.6c47-5.3,90.2-23.5,126-50.8,1.5-1.1,3-2.1,4.4-3.2h0s0,0,.1-.1l-59.2-59.2ZM133.7,452.2l25.5-25.5c19.9,11.2,41.7,19,64,22.7,10.8,1.8,21.8,2.8,32.9,2.8s22.1-.9,32.8-2.7c22.3-3.7,44.1-11.5,64-22.8l20.8,20.8,4.6,4.7c-29.1,18.1-61.9,29.6-96.2,33.5-8.5,1-17.3,1.5-26.1,1.5s-17.6-.5-26.2-1.5c-31.8-3.6-62.3-13.8-89.9-29.8-2.1-1.2-4.2-2.4-6.2-3.7Z"/>
  <path class="cls-1" d="M155.8,114.2c20.8-14.9,45.1-25.2,71.4-29.6V1s0,0,0,0v-.2c-47,5.3-90.1,23.5-125.9,50.7-1.5,1.1-3.1,2.2-4.5,3.3h0s0,0-.1.1l59.1,59.2ZM133.7,58.1c21.4-13.4,44.9-23.1,69.4-28.9v36.1c-15.3,4.3-30.1,10.4-44,18.3l-20.9-20.9-4.5-4.6Z"/>
  <path class="cls-1" d="M456.2,95.8c-12-15.1-25.7-28.8-40.8-40.8-34.4-27.4-76-46-121.5-52.8-3-.5-5.9-1-8.9-1.4h0c0,0-.1,0-.2,0v83.7c26.2,4.4,50.5,14.8,71.4,29.6,15.8,11.2,29.6,25,40.8,40.8,20.2,28.3,32,62.9,32,100.2s-11.9,71.9-32,100.2l59.1,59.2c34.9-43.8,55.8-99.2,55.8-159.4s-20.9-115.6-55.8-159.4Z"/>
  <path class="cls-1" d="M197.6,256v-71.3c-39.4,0-71.3,31.9-71.3,71.3s31.9,71.3,71.3,71.3,70-30.8,71.2-69.2c0-.6.1-1.3.1-1.9h0c0,0,0-.1,0-.2h-71.3ZM197.6,275.2h45s3.4.1,3.4.1c-7.7,19.2-26.4,32.7-48.3,32.7s-52.1-23.4-52.1-52.1,13.6-40.7,32.9-48.4v67.6h19.2Z"/>
  <polygon class="cls-1" points="385.7 210.8 385.7 196 295.5 196 295.5 210.5 295.5 210.6 295.5 210.6 295.5 210.8 385.7 210.8"/>
  <polygon class="cls-1" points="295.5 248.8 295.5 248.9 385.7 248.9 385.7 234.2 296 234.2 295.6 234.2 295.5 234.2 295.5 248.7 295.5 248.8 295.5 248.8"/>
  <polygon class="cls-1" points="295.5 286.9 295.5 287.1 365.3 287.1 365.3 272.4 295.5 272.4 295.5 286.9 295.5 286.9 295.5 286.9"/>
  <path class="cls-1" d="M218.1,184.7h0c0,0-.1,0-.2,0v50.9h50.9c0-27.6-22-50-49.4-50.9-.5,0-.9,0-1.4,0Z"/>
</svg>