<?xml version="1.0" encoding="UTF-8"?>
<svg id="_10" data-name="10" xmlns="http://www.w3.org/2000/svg" version="1.1" viewBox="0 0 512 512">
  <defs>
    <style>
      .cls-1 {
        fill: #fff;
        stroke-width: 0px;
      }
    </style>
  </defs>
  <path class="cls-1" d="M507.6,27.9c-2.8-2.8-6.7-4.5-10.9-4.5H14.2l-1.2.2c-5.1.8-9.8,4.2-11.8,9.2l-.5,1-.5,2.5-.2,1.1v16.7h0v319.9c0,4.3,1.8,8.3,4.6,11.2,2.8,2.8,6.8,4.6,11.2,4.6h212.1v20.6h-6.8l-1.9.3-85.1,14.2h-.5c-9.6,1.9-17.3,9.2-19.6,18.7-2.1,9.2,1.1,19,8.5,24.9l12.3,10.2,4,3.3,7.9,6.6,10.2-1.6,70.6-11.1h56.5c0,0,71.2,11.1,71.2,11.1l10.2,1.6,8-6.6,3.8-3.2,12.6-10.5c7.2-5.9,10.5-15.7,8.2-25.1-2.4-9.3-10-16.6-19.5-18.3h-.3c0,0-.2,0-.2,0l-85.9-14.2-1.8-.3h-6.1v-20.6h212.1c4.4,0,8.3-1.8,11.2-4.6,2.8-2.8,4.7-6.9,4.6-11.2V38.6c0-4.1-1.6-8-4.4-10.8ZM53.6,89.8c0-2.9,2.4-5.3,5.3-5.3h122.6c4.8,0,7.2,5.8,3.8,9.2l-122.6,122.6c-3.4,3.4-9.2,1-9.2-3.7v-122.7ZM288.3,433.3l85.9,14.2c1.6.3,2.1,2.3.9,3.3l-12.5,10.4-3.9,3.2-73.1-11.5h-29.7c0,0-30.3,0-30.3,0l-72.4,11.4-3.9-3.2-12.5-10.4c-1.3-1-.8-3,.8-3.3l85.2-14.2h4.9v7.6h56.2v-7.6h4.2ZM489.1,366.9H23v-39h466.1v39Z"/>
</svg>