<?xml version="1.0" encoding="UTF-8"?>
<svg id="_10" data-name="10" xmlns="http://www.w3.org/2000/svg" version="1.1" viewBox="0 0 512 512">
  <defs>
    <style>
      .cls-1 {
        fill: #fff;
        stroke-width: 0px;
      }
    </style>
  </defs>
  <path class="cls-1" d="M397.3,106.7c-3.8-14.5-9.9-28-17.3-39.8-1.9-2.9-3.6-5.9-5.8-8.8l-3.1-4.3c-1.1-1.5-2.1-2.9-3-4-2.1-2.5-4.1-4.9-6.2-7.3-2.3-2.6-4.7-5.1-7.1-7.5-9.9-9.6-21.2-17.6-33.1-23.2-11.9-5.6-24.2-8.8-35.9-10.5-11.7-1.7-22.8-1.5-33.1-.6-10.3,1-19.8,2.7-28.4,5-17.3,4.5-31.4,10.4-42.7,15.9-11.2,5.5-19.6,10.6-25.1,14.3-2.8,1.8-4.9,3.3-6.3,4.3-1.5,1.1-2.3,1.6-2.3,1.6-3.8,2.8-5.4,8-3.4,12.5.4.9,1.1,1.7,1.7,2.4h0c.6.7,1.3,1.3,2,1.8.1,0,.2.1.3.2,2.1,1.3,4.6,1.8,7.2,1.3.2,0,.4,0,.5-.1.6-.1,1.2-.1,1.7-.4l.5-.2s.7-.3,2-.9c1.4-.6,3.6-1.5,6.4-2.6,5.7-2.2,14-5.5,24.8-8.8,10.8-3.3,24-6.8,39-8.9,15-2.1,31.9-2.7,48.7.9,1.4.3,2.8.7,4.1,1,1.5.4,3,.8,4.5,1.3,2.9.9,5.7,1.9,8.4,3.1,1.1.5,2.2,1,3.3,1.5,2.9,1.4,5.7,2.9,8.4,4.6,1,.6,2,1.3,3,2,2.6,1.8,5.1,3.7,7.5,5.7,1.1.9,2.2,1.9,3.2,2.9,1.1,1,2.2,2.1,3.3,3.2,1.6,1.7,3.2,3.5,4.8,5.4,1.7,2.2,3.3,4.3,5,6.5,1,1.2,1.7,2.3,2.4,3.2l2.1,3c1.4,1.9,2.8,4.3,4.1,6.5,5.3,9,9.7,18.6,12.5,28.6,2.6,10.1,4.1,20.5,3.7,31.5-.5,11-2.5,22.3-6.1,33.8-6.8,23.1-19,46.2-32,70.3l-4.8,9.2-4.7,9.2c-3.1,6.2-6,11.5-9.3,17.6-6.4,11.9-13.3,24.4-18.6,38-5.3,13.5-9.3,27.8-11.3,41.8-.4,3.5-.9,7-1.3,10.5-.3,3.5-.6,6.9-.8,10.4-.1,3.4-.3,6.8-.4,10.3-.2,3-.3,6-.5,9-.7,4.4-1.4,9.7-3.1,14.6-1.4,5-3.5,9.8-5.8,14.3-4.8,9-10.8,17.3-17.8,23.5-7.1,6.4-14.5,10.9-22.5,13.2-2,.6-4,1.1-6.1,1.5,0,0,0,0,0,0-6.2,1.2-12.7,1.4-18.7,1-16.5-1.1-30.8-7.8-40-16.2-9.6-8.4-13.2-18.6-15.1-27.4-1.9-8.9-2.9-17.1-3.7-23.2-.4-3.1-.7-5.6-1-7.2-.3-1.7-.5-2.6-.5-2.6v-.6c-.4-1-.9-2-1.6-2.8-2.3-2.5-6.2-2.6-8.7-.3,0,0-.7.7-2,2.1-1.2,1.4-3.2,3.6-5,6.8-3.8,6.2-8.3,16.7-7.7,31.4.9,14.5,7.8,33,22.6,47.4,14.5,14.7,35.9,24.5,59.9,26.8,12.1,1,24.9,0,37.7-4l2-.6,1.6-.5,1.2-.5,4.9-2c3.2-1.4,6.3-3,9.3-4.8,5.9-3.6,11.5-7.7,16.6-12.5,10.3-9.3,18.5-20.8,24.9-33.5,3.1-6.4,5.8-13.1,7.7-20.1.5-1.5.7-3.2,1.1-4.7,0-.1,0-.2,0-.4,1.3-5.4,2.2-11,2.9-17.3l.2-4.8.2-5.3c0-3,.1-6,.2-9,.2-3,.4-6,.6-9,.3-3,.7-5.9,1-8.9,1.7-11.8,4.6-23.3,9.2-34.5,4.5-11.2,10.6-22.4,17.3-34.1,3.3-5.7,7-12.1,10.1-18l4.8-8.7,5-8.5c13.6-23,29.1-47,39.2-74.6,5.1-13.7,8.6-28.5,10-43.6,1.3-15.1.2-30.6-3.6-45.2Z"/>
  <path class="cls-1" d="M150.6,250.6c-4.5,7.1-9.6,15.1-10.2,27.1-.3,7.2,3.2,12.4,6.5,17.5,3.5,5.2,7.1,10.5,7.9,19.4.8,8.4-1.3,15.5-2.8,20.7-1.8,6.1-4.2,14.4,3.7,18.3,1.5.7,2.9,1.1,4.4,1.1,6.3,0,10-6.3,13.5-12.4,2.6-4.4,5.4-9.4,9.1-12.4,1.9-1.5,4.1-3.1,6.7-4.9,14.9-10.6,39.9-28.2,37.2-65.5-2.3-32.5-13.8-50.3-30.5-67.1-15.3-15.4-21.2-23.2-18.3-31.2,3-8.3,18.4-21.4,26.5-22.6l1.3-.2c6.5-1,12.2-1.9,30.2,4.6,7.7,2.8,15.4,6.8,21,9.6l2.9,1.5c6.3,3.2,11.1,1.2,13-2.1,4.6-8-7.5-15.7-12-18.6-13.5-8.6-23.6-11.7-31.8-13.5-17.3-3.9-40.6-2.5-57.2,11.7-.2.2-.4.3-.6.5-1.3,1.2-2.7,2.2-3.9,3.5-9.8,10.7-20.9,35.3-15,56.3,1.2,4.2,2.3,7.8,3.3,11,3.5,11.1,5.1,16.2,3.1,29.2-1.2,7.4-4.5,12.6-8.3,18.6Z"/>
</svg>