<?xml version="1.0" encoding="UTF-8"?>
<svg id="_10" data-name="10" xmlns="http://www.w3.org/2000/svg" version="1.1" viewBox="0 0 512 512">
  <defs>
    <style>
      .cls-1 {
        fill: #fff;
        stroke-width: 0px;
      }
    </style>
  </defs>
  <path class="cls-1" d="M172.3,420c-6.3,6.3-6.3,16.6,0,22.8l3.2,3.2c6.3,6.3,16.6,6.3,22.9,0l3.6-3.6-26-26-3.6,3.6Z"/>
  <path class="cls-1" d="M128.1,385.4c-6.3,6.3-6.3,16.6,0,22.9l3.1,3.1c6.4,6.3,16.6,6.3,22.9,0,0,0,3.1-3.1,8.2-8.2h0c0,0,0,0,.1-.1l-26-26-8.4,8.4Z"/>
  <path class="cls-1" d="M97.6,338.1l-3.6,3.6c-6.3,6.3-6.3,16.6,0,22.8l3.2,3.2c6.3,6.3,16.6,6.3,22.9,0l3.6-3.6-26-26Z"/>
  <path class="cls-1" d="M402.1,54l-66.5,67.2-49.2,16.2-15.7,5.2h0l-15.7,5.2h0l-115.4,38c-2,.7-3.8,1.8-5.3,3.1-.8.7-1.5,1.4-2.1,2.3-.7.8-1.2,1.7-1.6,2.7-1.6,3.4-2,7.2-1,10.8.1.4.2.9.4,1.3l1.7,4.9c.8,2.2,2,4.1,3.7,5.8h0c.8.8,1.6,1.5,2.5,2,1.3.9,2.7,1.5,4.2,2,.4.1.8.2,1.1.3,1.1.3,2.3.4,3.4.4s1.1,0,1.6,0c.5,0,.9,0,1.4-.2.2,0,.5-.1.7-.2.5-.1,1-.3,1.5-.4l50.8-11h0c.4,0,.7-.2,1-.2.1,0,.3,0,.4,0h0s88.7-19.3,88.7-19.3l39.9,39.9,6.6,6.6.2.2h-.3c0,0,73.6,73.5,73.6,73.5,14.6-15.3,24.2-34.3,28.1-55.1l4.3-23.5,66.7-67.4-109.9-109.9Z"/>
  <path class="cls-1" d="M399.1,323.8l-112.3-112.6-78.4,17-1.4.3h-.8c0,.1-49,10.8-49,10.8-2.3.7-4.6,1.1-7,1.3-1.1.1-2.3.2-3.4.2-9.5,0-18.4-3.7-25.1-10.4-3.7-3.7-6.4-8-8.3-13.1l-1.8-4.9c-3.1-8.9-2.6-18.5,1.4-27.1,4.1-8.5,11.2-14.9,20.1-18.1h.2c0-.1.3-.2.3-.2l49.8-16.4,40.3-13.1h-.2c0,0,.3-.2.3-.2l-49.1-16.2-63.4-65.9-1.1-1.2h0s-.1-.1-.1-.1L0,163.9l64.9,67.4,4.3,23.5c4,21.8,14.4,41.5,30.1,57.2l11.8,11.8,26,26,13.3,13.3,26,26,13.3,13.3,26,26,24.8,24.8c3.1,3.1,7.1,4.6,11.2,4.6s2.3-.1,3.3-.4c2.9-.6,5.6-2.1,7.9-4.3l3.6-3.6c6.2-6.2,6.2-16.2,0-22.4l-67.4-67.4c-4.1-4.1-3.6-11.1,1.5-14.5,1.5-1,3.3-1.5,5-1.5,2.6,0,5.2,1,7.1,2.9l2.9,2.9,13.3,13.3,39.3,39.3,26,26,17.5,17.5c3.1,3.2,7.3,4.7,11.4,4.7s8.3-1.6,11.4-4.7l3.2-3.2c6.3-6.3,6.3-16.5,0-22.8l-43.5-43.5-13.4-13.3-26-26-13.4-13.3-2.9-2.9c-3.7-3.7-3.9-9.7-.5-13.3l.2-.2c1.8-1.8,4.2-2.8,6.7-2.8h0c2.5,0,4.8,1,6.6,2.7.9.9,2,2,3.2,3.2,3.4,3.4,8,8,13.3,13.4,7.6,7.6,16.6,16.6,26,26l13.3,13.3c9.3,9.3,18.3,18.3,26,26,13.1,13.1,22.2,22.2,22.2,22.2,3.2,3.2,7.3,4.7,11.5,4.7s8.2-1.6,11.4-4.7l3.2-3.1c6.3-6.3,6.3-16.6,0-22.9l-22.3-22.2-84.9-84.8c-2.1-1.9-2.2-5.1-.2-7.1l3.2-3.2c1.8-1.8,4.2-2.7,6.7-2.7s4.8.9,6.6,2.7l81.9,81.9,6.2,6.2c3.8,3.8,8.9,5.8,13.9,5.8s7.2-1,10.2-3.1c5.4-3.8,8.4-10.1,7.8-16.9-.4-4.5-2.6-8.6-5.8-11.8l-6.3-6.2Z"/>
</svg>