<?xml version="1.0" encoding="UTF-8"?>
<svg id="_10" data-name="10" xmlns="http://www.w3.org/2000/svg" version="1.1" viewBox="0 0 512 512">
  <defs>
    <style>
      .cls-1 {
        fill: #fff;
        stroke-width: 0px;
      }
    </style>
  </defs>
  <path class="cls-1" d="M444.6,0H67.4c-13.4,0-24.2,10.8-24.2,24.2v463.6c0,13.4,10.9,24.2,24.2,24.2h284.9v-116.5h116.6V24.2c0-13.4-10.9-24.2-24.2-24.2ZM247.2,120.7h-55.2v-55.2c30,0,54.4,24,55.1,53.8,0,.5,0,1,0,1.4ZM291.8,101.3v-18.4h115.5v18.4h-115.5ZM291.8,151.9v-18.4h115.5v18.4h-115.5ZM291.8,202.5v-18.4h115.5v18.4h-115.5ZM96.5,283.6v-18.4h318.9v18.4H96.5ZM170,65.5v77.2h77.2c0,42.6-34.6,77.2-77.2,77.2s-77.2-34.6-77.2-77.2c0-42.7,34.6-77.2,77.2-77.2ZM96.5,329.5h318.9v18.4H96.5v-18.4Z"/>
  <path class="cls-1" d="M170,199.2c14.6,0,27.8-5.6,37.9-14.7,0,0,.2-.1.3-.2,1.4-1.3,2.7-2.8,4-4.2.6-.7,1.2-1.2,1.8-1.9.8-1,1.4-2,2.1-3,.9-1.3,1.9-2.6,2.7-4,0-.1.1-.2.2-.4,1.3-2.2,2.5-4.6,3.5-7h0c0,0,0-.1,0-.2h-73.3v-73.1s0,0,0,0v-.2c-20.8,8.3-35.6,28.7-35.6,52.5,0,31.1,25.3,56.4,56.4,56.4Z"/>
  <path class="cls-1" d="M372.1,512h10c47.9,0,86.8-38.9,86.8-86.8v-10h-96.8v96.8h0Z"/>
</svg>